# xmcd
#
# Track frame offsets:
#	150
#	18080
#	33400
#	47785
#	56210
#	73382
#
# Disc length: 1281 seconds
#
# Revision: 1
# Processed by: cddbd v1.5.1PL0 Copyright (c) Steve Scherf et al.
# Submitted via: CDex 1.50Beta5
#
DISCID=5204ff06
DTITLE=Laula - Ka Liko Lua
DYEAR=1900
DGENRE=Hawaiian
TTITLE0=K Liko Lua(二つの芽の詩)
TTITLE1=少年時代
TTITLE2=Something
TTITLE3=I Ali'l No 'Oe
TTITLE4=E Ho'i Ana Au(僕は旅立つ)
TTITLE5=Tiara
EXTD=
EXTT0=
EXTT1=
EXTT2=
EXTT3=
EXTT4=
EXTT5=
PLAYORDER=
